<?xml version="1.0" encoding="utf-8"?>

<!DOCTYPE svg PUBLIC "-//W3C//DTD SVG 1.1//EN" "http://www.w3.org/Graphics/SVG/1.1/DTD/svg11.dtd">
<svg version="1.1" id="Layer_1" xmlns="http://www.w3.org/2000/svg" xmlns:xlink="http://www.w3.org/1999/xlink" x="0px" y="0px"
	 viewBox="0 0 1873.081 1669.76" enable-background="new 0 0 1873.081 1669.76" xml:space="preserve">
<path d="M1829.474,76.933c-1.832-6.078-7.249-10.15-13.518-10.057c-6.147,0.091-24.922,1.497-28.732,6.136
	c-2.563,3.12-4.67-0.896-10.746-1.365c-8.55-0.661-17.011-0.627-25.329,1.94c-9.49,2.929-10.021-0.319-19.838-0.149
	c-23.434,0.407-23.398-7.576-48.929-17.946c-1.013-0.412-46.733-33.563-69.808-6.711c-5.488,6.386,2.956,20.691-10.407,37.2
	c-6.924,8.555-12.891,5.576-15.369,7.423c-33.404,24.907-129.897,57.533-205.405,71.306c-54.528,9.946-120.607,51.47-145.934,74.51
	c-24.919,22.668-45.359,24.002-76.943,42.46c-32.457,18.968-59.74,31.801-93.775,46.181
	c-207.981,87.877-219.174,109.276-334.247,132.949c-67.927,13.976-72.264,5.894-201.197-16.565
	c-60.699-10.574-107.845-23.992-161.643-29.386c-46.969-4.71-70.418-0.715-55.796-10.217c15.298-9.939,27.739-22.926,41.949-34.081
	c45.83-35.978,147.621-98.608,148.622-99.044c2.971-1.294,6.72-1.476,9.111-3.821c7.939-7.791,44.95,28.919,64.631,18.651
	c18.372-9.585,25.179-34.617,26.773-55.193c3.345-43.158,28.297-58.318,33.988-65.581c14.658-18.708,37.793-12.329,62.178-47.075
	c11.988-17.083,5.325-24.862,16.855-31.468c12.162-6.969,21.717-28.572,15.364-41.306c-1.272-2.549-0.357-9.609-8.759-10.729
	c-12.267-1.634-3.748,10.827-20.892,14.607c-5.136,1.132-10.362,1.942-14.772,5.177c-5.18,3.799-9.596,2.349-12.684,9.315
	c0.437,0.208-23.576,25.5-39.148,32.67c-16.156,7.439-16.895,12.256-54.143,21.261c-45.709,11.051-66.686,30.638-82.414,39.16
	c-3.626,1.964-7.791,2.418-11.191,4.593c-8.719,5.576-14.015,6.32-21.477,12.569c-2.768,2.318-5.776,5.109-9.089,5.848
	c-12.819,2.859-25.894,12.823-37.465,18.966c-57.02,30.275-45.579,25.244-99.262,47.104
	c-165.224,67.281-107.621,48.741-188.228,84.695c-21.827,9.736-64.739,22.875-89.082,74.906c-3.652,7.807-5.893,13.681,1.01,54.6
	c3.595,21.309,14.934,33.046,33.195,46.798c17.88,13.465,57.341,36.145,89.483,48.954c183.813,73.253,231.189,55.508,292.365,79.277
	c3.729,1.449,6.609,4.938,6.984,8.545c0.524,5.039,4.158,9.877,1.449,15.248c-0.254,0.504,0.395,1.503,0.702,2.241
	c0.555,1.334,1.044,2.719,0.727,4.141c-1.152,5.184,3.124,4.687,6.665,11.411c3.921,7.445,0.661,19.481,5.923,23.597
	c1.402,1.097,1.681,2.804,0.552,4.374c-5.742,7.983,6.183,14.134-0.101,25.479c-4.317,7.793,4.048,7.414,2.206,17.288
	c-0.583,3.123,0.015,5.978,0.675,8.991c7.606,34.68,2.436,12.469,5.127,36.582c0.845,7.576,5.707,5.009,3.523,12.851
	c-1.218,4.373-0.838,8.664,4.586,26.003c13.05,41.718,2.663,55.133,3.835,67.664c1.834,19.614,1.938,25.694-16.136,68.917
	c-2.057,4.92-9.106,26.606-5.585,27.568c2.775,0.758,2.433,2.434,1.936,4.621c-0.302,1.327-12.198,24.805-12.607,25.542
	c-7.515,13.536-10.719,27.941-16.116,38.704c-4.605,9.182,1.182,8.843-1.062,15.846c-4.901,15.295-9.758,45.568-9.996,47.629
	c-8.715,75.354-40.069,107.104-38.135,163.328c0.127,3.699-2.354,15.228-2.345,22.351c0.034,26.873-11.114,53.904-14.659,68.7
	c-10.501,43.83-7.969,68.293-10.188,128.021c-0.403,10.851,3.241,21.279,3.23,32.066c-0.004,4.271,1.335,8.361,2.57,12.479
	c5.006,16.694,12.181,21.944,12.766,23.216c2.65,5.762,7.656,8.999,13.165,11.095c17.412,6.626,42.978,11.865,62.167,14.25
	c44.978,5.591,65.527,4.367,71.367,9.474c7.035,6.152,48.609,13.165,49.61,13.355c29.147,5.535,28.655,0.249,81.03,7.214
	c13.024,1.732,25.956-0.851,38.944-0.866c5.414-0.007,3.399-3.005,10.17-4.666c29.902-7.336,25.252-7.626,38.03-10.929
	c23.785-6.147,82.111-15.454,83.111-15.43c9.171,0.22,18.183-0.918,27.099-3.015c6.032-1.418,33.133-2.394,41.248-6.396
	c4.918-2.426,9.15-6.174,14.419-7.807c6.503-2.016,10.725-6.313,13.618-12.232c3.834-7.846,13.553-22.027,17.996-35.82
	c7.826-24.295,0.403-56.97,4.811-94.542c4.438-37.822-14.005-84.091-14.557-101.467c-1.338-42.115,8.45-103.28-27.977-160.504
	c-12.811-20.126-13.741-37.69-17.574-54.076c-13.949-59.619-18.331-58.711-17.194-66.319c1.38-9.229-4.157-7.86-6.538-14.782
	c-3.158-9.182-7.65-17.818-9.842-27.449c-1.394-6.125-2.422-12.477-5.359-18.374c-2.898-5.819-2.991-25.596-5.031-31.115
	c-6.99-18.915-1.116-4.709-17.476-44.154c-7.856-18.94-2.118-20.59-5.896-41.291c-1.087-5.96-0.745-34.641-0.714-37.105
	c0.101-7.939,3.026-15.631,2.361-23.581c-1.342-16.042,14.019-10.331,9.111-25.887c-0.316-1-2.387-8.682-1.214-11.958
	c9.326-26.057,3.66-36.352,10.383-41.237c4.964-3.606,4.154-8.994,2.509-14.452c-2.51-8.329,6.673-5.151,5.738-14.727
	c-1.066-10.915,3.803-5.18,4.052-11.578c0.189-4.833-0.33-8.861,4.473-10.092c7.591-1.945,0.714-14.122,10.501-22.499
	c6.406-5.483,2.122-8.938,6.823-13.739c8.934-9.124,28.719-14.713,41.215-25.202c8.865-7.441,20.975-13.48,24.476-15.818
	c135.292-90.337,159.001-90.733,220.293-162.434c10.338-12.093,17.62-14.401,30.56-27.765c42.33-43.715,50.682-33.628,82.936-68.011
	c35.145-37.465,63.495-34.047,150.315-75.592c36.918-17.666,128.55-76.067,144.547-75.625c7.068,0.195,7.298-5.037,19.345-8.038
	c5.244-1.306,14.442-5.83,18.122-6.924c8.374-2.488,8.33-6.758,13.709-7.558c1-0.149,63.173-16.07,90.238-34.086
	c53.295-35.475,73.025-30.233,86.52-37.101c1.289-0.656,7.913,0.798,9.494-4.883c0.971-3.491,3.83-3.01,5.436-7.13
	c1.875-4.809,5.146-8.12,7.545-13.888C1835.65,80.772,1831.106,82.352,1829.474,76.933z M599.749,1339.233
	c-6.246,26.861-14.135,39.957-14.662,52.027c-0.018,0.402-0.03,0.859-0.22,1.191c-2.999,5.231-2.597,11.221-3.803,16.85
	c-2.676,12.491-5.377,3.131-12.832-0.547c-4.207-2.076-7.726-0.572-9.008,3.055c-2.23,6.308-5.955,12.355-6.835,18.813
	c-1.235,9.063-9.428,35.477-2.636,41.303c3.637,3.119-2.505,3.837-1.996,7.723c1.036,7.906-9.822,9.417-7.223,14.032
	c2.087,3.705-0.757,6.825,0.668,19.588c0.205,1.834,0.47,3.692,0.073,5.379c-4.507,19.16-5.951,20.519-15.771,19.878
	c-12.669,0.169-23.339-4.266-31.788-13.835c-17.863-20.233-23.296-14.437-22.257-21.71c3.225-22.598,3.729-34.59,10.666-56.087
	c5.666-17.56,14.865-27.751,18.322-65.217c0.694-7.521,3.485-32.97,8.897-39.983c43.547-56.419,12.963-17.445,61.388-67.28
	c1.706-1.756,3.463-1.871,5.5-1.026c12.982,5.387,10.79,1.199,15.96,9.537c4.94,7.967,6.354,12.405,10.409,15.56
	c2.311,1.798,3.48,4.456,3.801,7.397C607.987,1320.427,605.541,1314.324,599.749,1339.233z M858.075,1457.156
	c2.019,14.753,0.906,32.443,1.376,41.365c0.456,8.649-3.242,2.137-25.798,25.808c-5.237,5.496-11.838,9.19-18.495,12.727
	c-4.317,2.294-8.575,1.948-12.833-0.105c-15.618-7.53-12.731-9.779-11.489-19.726c1.838-14.714-7.853-19.138-1.691-22.601
	c0.912-0.513,1.504-1.519,1.401-2.563c-0.506-5.143,0.178-10.808-5.287-14.031c-1.791-1.057-2.059-2.116-1.164-3.949
	c2.484-5.086,2.32-10.656,2.533-16.11c0.402-10.268-7.255-5.901-10.17-28.763c-0.34-2.665,5.239-9.928-3.163-10.847
	c-4.105-0.449-8.064-0.659-10.973,3.363c-5.872,8.117-8.305-28.59-15.36-54.305c-4.038-14.72-6.509-29.696-8.012-44.886
	c-0.862-8.708,0.691-16.513,5.893-23.569c9.331-12.657,21.239-30.011,31.638-19.154c14.654,15.3,42.307,29.01,46.854,35.626
	C852.875,1358.413,838.442,1313.671,858.075,1457.156z"/>
</svg>
