<?xml version="1.0" encoding="utf-8"?>

<!DOCTYPE svg PUBLIC "-//W3C//DTD SVG 1.1//EN" "http://www.w3.org/Graphics/SVG/1.1/DTD/svg11.dtd">
<svg version="1.1" id="Layer_1" xmlns="http://www.w3.org/2000/svg" xmlns:xlink="http://www.w3.org/1999/xlink" x="0px" y="0px"
	 viewBox="0 0 1421.0743 2780.7439" enable-background="new 0 0 1421.0743 2780.7439" xml:space="preserve">
<g>
	<path d="M1024.9955,1474.278c-26.6673,0.3086-53.3243,0.7396-79.9904-0.0389c-30.3729-0.887-60.4601-4.4192-90.4221-9.2548
		c-23.3617-3.7704-46.4904-8.7334-69.6515-13.5345c-11.4487-2.373-12.5625-1.6364-13.9149,9.9573
		c-2.9413,25.2128-3.3246,50.533-2.9264,75.8784c0.4136,26.326,0.9283,52.6396-0.5007,78.9686
		c-1.4479,26.676-4.808,53.1162-9.3337,79.3882c-8.2744,48.0342-13.4283,96.3495-14.9708,145.0688
		c-0.4963,15.677-0.1447,31.3253,0.4792,46.9779c0.7565,18.9817,1.964,37.9519,2.3574,56.9399
		c0.5265,25.4075,6.4753,49.458,16.6869,72.5725c17.8323,40.3652,31.5204,82.124,41.2067,125.1365
		c6.825,30.3064,10.5839,61.0708,10.3646,92.2024c-0.1007,14.3093-1.381,28.605-0.2515,42.9319
		c0.2913,3.6931-0.7441,7.3135-2.3918,10.6318c-3.9573,7.97-5.0034,16.5269-5.2103,25.2349
		c-1.1718,49.3171-1.6793,98.6404-1.4845,147.9734c0.1124,28.4536,3.641,56.5046,9.189,84.3386
		c2.7994,14.0442,5.1338,28.1694,8.6267,42.0952c4.0651,16.2065,9.1404,32.0154,15.2867,47.5337
		c2.6946,6.803,4.9716,13.7996,6.9863,20.8379c4.4633,15.5908,3.3689,31.1697-2.2074,46.1628
		c-3.855,10.3655-11.6185,17.6663-22.0034,21.9897c-10.0255,4.1741-20.5581,5.7327-31.2715,5.7449
		c-11.6582,0.0134-23.321-0.499-34.9752-0.9539c-16.9816-0.6631-33.9518-1.6484-50.9366-2.1895
		c-23.8336-0.759-47.1448,2.9348-70.2098,8.6721c-7.7474,1.9275-15.6099,3.4302-23.4686,4.8594
		c-5.9625,1.0845-11.5779,2.7644-16.8188,5.9722c-11.8325,7.2424-24.4159,9.8308-38.3024,6.7515
		c-14.0616-3.1184-27.722-0.136-41.1978,4.3081c-12.5119,4.1262-25.3662,5.5269-38.4025,2.6187
		c-2.9031-0.6479-5.756-1.6897-8.4932-2.8716c-3.8093-1.6445-6.3401-4.5405-8.1446-8.3765
		c-4.4518-9.4639-6.4071-18.7668-1.2331-28.7432c2.591-4.9958,5.8875-8.866,11.0311-10.998
		c7.5282-3.1206,13.9124-7.8953,19.4276-13.7327c4.0191-4.2537,8.621-7.3213,14.1099-9.0876
		c7.0904-2.2815,13.6933-5.0603,17.646-12.0647c1.4774-2.6179,4.2611-4.1804,7.1049-5.3096
		c10.5481-4.1887,21.207-7.9778,32.5915-9.2375c3.3112-0.3665,6.6115-0.8584,9.9003-1.3936
		c10.2545-1.6689,19.8225-5.0776,29.3326-9.4539c18.6149-8.5659,34.7419-21.0542,52.2107-31.3958
		c6.4097-3.7944,11.465-9.1755,14.6488-16.021c11.2898-24.2732,17.7648-49.5183,14.7406-76.5313
		c-3.5586-31.7854-7.1656-63.5667-10.9446-95.3267c-3.978-33.4329-9.4849-66.6272-16.1716-99.6245
		c-0.4617-2.2786-0.7951-4.7185-1.8726-6.7139c-6.0023-11.1174-6.9819-23.4763-9.0883-35.5542
		c-4.1222-23.6357-8.8854-47.1357-14.3874-70.4912c-5.2703-22.3713-10.9708-44.6426-15.1389-67.2705
		c-4.3619-23.6799-6.7565-47.5059-6.0267-71.5854c0.3342-11.0259-0.6078-21.9719-1.2454-32.9456
		c-0.2563-4.4114-1.6304-8.3938-3.5549-12.3669c-10.1957-21.0505-17.9684-42.969-23.1041-65.8093
		c-1.331-5.9197-4.6697-11.0112-7.1415-16.4541c-1.3729-3.0232-2.9904-5.9941-4.9011-8.7039
		c-9.0722-12.8655-13.0934-27.4961-15.8164-42.7456c-3.8655-21.6482-7.2733-43.3583-10.5403-65.104
		c-3.6813-24.5048-12.3834-47.6764-20.3347-71.0078c-2.9009-8.5121-6.0698-16.9446-9.4402-25.2825
		c-6.5193-16.1273-11.1604-32.8011-14.7404-49.7747c-6.3342-30.0309-14.9972-59.4279-23.7485-88.8085
		c-5.1362-17.2433-10.176-34.5306-13.571-52.2142c-5.5617-28.9691-7.0978-58.1754-4.3032-87.573
		c0.9456-9.9463,0.6248-20.0048,2.6213-29.8569c1.1244-5.5483,2.3931-11.0695,3.4076-16.6373
		c0.8444-4.6344-0.1149-6.1359-4.5096-7.283c-2.572-0.6713-5.2305-1.0144-7.8531-1.4874c-4.3479-0.7843-8.3926-2.3003-11.603-5.4192
		c-2.976-2.8911-6.4111-4.5863-10.4868-5.3745c-2.2463-0.4342-4.7348-1.1426-6.4474-2.5427
		c-7.0992-5.8042-15.8074-6.7018-24.2309-8.5413c-0.3242-0.0707-0.6661-0.0594-0.9911-0.1274
		c-10.6415-2.2274-20.7023-6.6796-31.7463-7.5662c-5.3251-0.4276-9.5569-4.5383-14.0203-7.4106
		c-3.6802-2.3682-5.0602-6.3325-4.8112-10.4438c0.3498-5.7749-2.113-9.2101-7.0234-11.9698
		c-14.4117-8.0997-26.0731-19.5114-37.0851-31.6646c-14.3436-15.83-27.4009-32.6953-40.1161-49.8246
		c-11.9269-16.0673-24.385-31.6904-37.4328-46.8608c-20.5016-23.837-38.1111-49.6423-53.1945-77.2633
		c-10.6979-19.5902-22.2955-38.6886-33.4468-58.0322c-9.3383-16.199-17.1443-33.1323-24.2166-50.4296
		c-8.2-20.0553-17.0641-39.8176-26.7486-59.2067c-10.4474-20.9161-22.4786-40.8236-36.4496-59.6226
		c-20.3405-27.3695-28.2687-58.3009-25.8183-92.2495c1.2067-16.7173,4.4935-33.0737,8.4265-49.1837
		c2.9849-12.2265,6.9446-24.2189,9.2043-36.6827c1.1342-6.2559,4.2289-11.9423,8.4744-16.8009
		c3.5373-4.0482,6.2312-8.6121,8.9252-13.2269c6.8955-11.8121,14.3719-23.2517,23.0258-33.8691
		c12.6461-15.5153,23.6896-32.0626,33.8944-49.3064c6.7463-11.3998,14.4215-22.3943,23.5034-32.2224
		c1.1286-1.2214,2.1577-2.7661,3.5758-3.4483c5.7436-2.7632,8.7802-7.9179,12.1102-12.8893
		c6.4872-9.6851,12.4538-19.7219,19.8241-28.814c1.8586-2.2928,3.2721-5.0634,4.3924-7.8169
		c4.5703-11.2334,11.5003-20.976,18.5509-30.7199c12.8191-17.716,22.0556-37.3126,27.5853-58.3889
		c2.6205-9.9882,5.1915-19.9574,8.5898-29.695c4.4125-12.6434,4.5935-25.4574,2.1341-38.4583
		c-1.1766-6.2196-2.3337-12.4449-3.3578-18.6907c-1.0295-6.2789-1.4639-12.5946-0.0294-18.8816
		c0.8617-3.7762,0.1762-7.1961-1.7078-10.5628c-2.9281-5.2322-5.5134-10.6576-8.48-15.8666
		c-10.0979-17.7307-1.1334-33.596,16.0083-39.8943c3.0944-1.137,6.4567-1.7246,9.7485-2.103
		c4.9554-0.5697,8.785-2.8711,11.9227-6.5842c0.8604-1.0182,1.7394-2.0211,2.6287-3.0143
		c4.5862-5.1216,10.0459-7.8084,16.9246-5.3576c4.2285,1.5067,7.1014,0.4558,9.0432-3.5069
		c0.2913-0.5946,0.6562-1.1714,1.0781-1.681c4.7458-5.7326,8.6431-6.5987,15.7441-3.5279c4.6597,2.0151,4.8729,2.1233,6.9541-1.9791
		c5.2711-10.39,10.3588-20.8735,15.4669-31.3454c3.0651-6.2837,5.9001-12.6822,9.0668-18.9131
		c7.3903-14.5421,14.4901-29.2551,22.4849-43.4613c14.2137-25.2569,29.0471-50.1454,47.3456-72.7883
		c6.0667-7.5071,11.5722-15.4792,17.1302-23.3821c4.6562-6.6207,10.186-12.3566,16.6823-17.1002
		c9.4476-6.8988,19.6342-12.5548,30.2568-17.4663c9.5861-4.4322,18.7667-3.6848,27.6525,1.7258
		c2.8383,1.7282,5.6149,3.6084,8.2033,5.6885c30.9843,24.9001,59.8235,52.0161,85.8333,82.1503
		c13.5007,15.6415,27.3966,30.931,39.7379,47.5391c6.3536,8.5503,12.8386,17.0034,19.3106,25.465
		c2.4409,3.1911,4.3398,6.5768,5.8683,10.3552c3.1276,7.7315,8.0802,14.4917,12.5533,21.5016
		c2.3384,3.6644,7.5759,13.5594,9.7072,17.5745c3.5883,6.7601,6.5074,13.872,9.9805,20.6973
		c7.8461,15.4194,15.6655,30.8586,23.8924,46.0753c3.5993,6.6575,8.8476,12.4622,12.1279,19.2439
		c4.1171,8.5119,11.5287,14.6068,15.5729,23.0491c0.4147,0.8657,1.1554,1.7707,1.9824,2.2125
		c6.8719,3.6711,11.0862,10.2517,16.8098,15.0971c4.8663,4.1196,9.051,8.5952,13.2111,13.3716
		c5.4362,6.2416,11.653,11.9351,18.1467,17.0926c9.4171,7.4793,13.3295,17.0713,13.1069,28.7269
		c-0.0891,4.6676-0.2905,9.3287,0.6503,13.9485c0.1982,0.9736,0.4167,2.0182,0.2697,2.9753
		c-1.3778,8.9697-1.8867,17.7866,1.9028,26.4666c1.1991,2.7463-0.322,5.8666-1.0753,8.7819
		c-2.5571,9.8969-0.8186,14.7345,7.229,20.791c3.7205,2.7999,7.703,5.3317,11.0607,8.5182
		c7.8971,7.4946,8.6952,12.6413,4.1666,22.3188c-0.1412,0.3018-0.3069,0.5935-0.4304,0.9022
		c-2.7449,6.8592-6.9033,11.8881-14.7716,13.3708c-4.2738,0.8053-4.7139,2.6212-2.6962,6.5035
		c2.6371,5.0741,6.1586,9.5366,10.2866,13.4432c13.0844,12.382,24.2711,26.4585,36.2214,39.8615
		c7.2797,8.1646,14.6536,16.2936,22.392,24.1027c13.3237,13.4454,26.9812,26.707,38.2096,42.0699
		c5.8912,8.0608,10.9374,16.748,16.957,24.7047c11.1052,14.679,19.6509,30.9088,28.8898,46.7034
		c5.4219,9.269,13.0345,16.8295,18.6577,25.9002c3.3274,5.3671,7.2068,10.3964,10.9099,15.5256
		c13.645,18.9002,27.2871,37.8029,41.0078,56.6484c3.3373,4.584,6.9972,8.9332,11.7043,12.2316
		c3.9464,2.7653,6.3562,6.8356,8.7828,10.7693c4.8856,7.9199,9.4202,16.0564,14.1064,24.0994
		c3.3561,5.76,6.7181,11.4854,11.9642,15.8563c6.6838,5.5691,11.7487,12.5969,17.2227,19.283
		c9.2778,11.332,19.012,22.2893,28.3809,33.5486c11.9258,14.3325,23.6786,28.8091,35.5073,43.2224
		c1.0566,1.2876,1.9636,2.7513,3.207,3.8237c11.6317,10.0325,21.5646,21.7146,31.9318,32.9604
		c6.0812,6.5968,11.3907,13.9063,17.4852,20.4895c25.8501,27.9237,49.7407,57.4323,72.1021,88.2008
		c2.7427,3.7738,5.4797,7.5684,8.473,11.1409c23.3853,27.9104,43.9481,57.8341,63.2378,88.6564
		c14.7104,23.5051,26.948,48.2791,37.2274,74.0208c5.7087,14.2959,6.5988,29.1975,4.8148,44.2731
		c-1.4846,12.5458-6.2686,23.8041-14.8785,33.2311c-7.4261,8.1312-14.015,16.9362-20.9215,25.4917
		c-14.8789,18.4319-34.8065,28.5511-57.5687,33.5798c-15.9987,3.5344-32.3361,4.6431-48.6053,5.7019
		c-30.9708,2.0155-61.6146,6.4358-92.2559,11.0752c-25.7109,3.8928-51.5563,6.5026-77.5685,7.3235
		C1066.2936,1472.7708,1045.6454,1473.5535,1024.9955,1474.278z M864.5349,862.7306c0.0015-0.2958,0.0028-0.5914,0.0043-0.8872
		c-6.6648,0-13.3363-0.1903-19.9926,0.0487c-8.1615,0.293-15.8666-1.809-23.5344-4.0554
		c-5.6328-1.6503-9.7828-5.2211-12.9294-10.3441c-8.0038-13.0313-10.3344-27.3412-9.739-42.2173
		c0.7614-19.0256,4.6415-37.6472,8.2777-56.2731c3.4629-17.7379,6.4104-35.4255,0.0415-53.174
		c-0.894-2.4918-1.1711-5.1984-1.8607-7.7717c-2.5865-9.6523-4.72-19.4667-7.9978-28.881
		c-2.8689-8.2396-4.9077-16.5921-6.2352-25.1375c-0.7275-4.6832-1.9437-9.1192-4.1818-13.2618
		c-6.6774-12.3589-11.6685-25.3987-15.5416-38.8648c-0.9948-3.4588-2.6093-6.0394-6.0021-7.4078
		c-5.4508-2.1986-9.5704-6.0577-12.752-10.8609c-5.079-7.6682-11.8633-13.5086-19.5499-18.2872
		c-5.3212-3.3082-8.9169-7.7122-11.4826-13.3893c-5.338-11.8113-10.0549-23.9384-18.2455-34.3101
		c-2.5391-3.2153-4.6777-6.2855-8.7786-7.6224c-5.0631-1.6506-8.2512-5.4315-10.4033-10.181
		c-1.0996-2.4268-2.1085-4.9133-3.4313-7.2158c-1.8226-3.1722-4.4611-3.7103-7.5672-1.7637
		c-0.8408,0.5269-1.6619,1.1429-2.341,1.861c-6.8789,7.2729-14.4653,13.687-22.8758,19.1318
		c-1.1044,0.715-1.9996,1.7568-2.9789,2.6611c-5.3808,4.9685-10.8198,9.8762-16.1187,14.9306
		c-5.6223,5.3629-9.639,11.9102-12.9065,18.8709c-1.8174,3.8716-0.954,6.0031,2.644,8.4136
		c2.4896,1.668,5.0208,3.2961,7.6494,4.7291c4.4246,2.412,5.5837,6.193,5.2949,10.9202c-0.2521,4.1277-2.1672,7.66-3.4835,11.413
		c-1.7231,4.9127-1.1359,9.1422,3.3521,12.4132c2.1511,1.5679,4.0424,3.499,6.2244,5.0169
		c14.8202,10.3102,24.7449,25.0023,35.1993,39.2164c0.976,1.327,1.5132,2.9677,2.3913,4.3773
		c5.5107,8.8472,5.0789,19.1974,6.6287,28.8807c1.3579,8.4843,1.916,17.1849,3.4052,25.7035
		c2.3514,13.4509,4.8854,26.8719,7.5196,40.2706c0.9456,4.8094,1.5382,9.2492-3.3622,12.4077
		c-2.2145,1.4272-2.5215,3.8784-2.5678,6.2037c-0.0662,3.3231,0.0684,6.6595,0.3032,9.977
		c0.3838,5.4265,0.1288,10.618-3.3558,15.2303c-2.4951,3.3024-2.9951,7.3633-3.5411,11.3314
		c-0.6812,4.9502-1.4752,9.8979-1.8506,14.8747c-1.0032,13.2972-1.824,26.6001,0.7009,39.8549
		c0.8736,4.5863,1.0728,9.2427,0.929,13.9365c-0.1117,3.644-0.0917,7.3724,0.5514,10.9405
		c0.9614,5.3345,0.8626,10.5887,0.2993,15.9177c-0.595,5.6277-1.3371,11.2682-1.4418,16.9136
		c-0.2536,13.6698-1.4707,27.219-4.0123,40.6516c-1.4864,7.8555-3.0115,15.7045-4.4028,23.5769
		c-1.2779,7.2311-2.7057,14.4167-5.4707,21.2535c-6.414,15.8595-9.2062,32.6871-12.5016,49.2996
		c-1.8264,9.2073-2.8677,18.0151-9.3536,25.6841c-5.2582,6.2175-3.2006,10.3834,4.8769,9.3595
		c13.3874-1.6968,24.6697,3.5106,36.3726,8.0079c0.9329,0.3585,1.8729,0.699,2.8098,1.0474
		c9.3076,3.4626,19.162,5.7136,26.683,12.9911c1.5652,1.5146,4.1534,1.9817,6.2845,2.8982c1.5171,0.6525,3.5212,0.834,4.511,1.9392
		c4.9601,5.5391,11.864,8.5076,17.2369,13.5361c6.274,5.8722,12.6038,11.9366,22.0032,12.7091
		c1.8519,0.1522,4.235,1.1364,5.2826,2.5468c5.0414,6.7866,12.0977,10.0499,19.8102,12.4926
		c1.5281,0.484,2.8018,1.7649,4.1996,2.6676c20.449,13.2068,41.1122,25.6609,65.1394,31.9373
		c12.7382,3.3273,25.8546,5.7429,38.0652,11.1216c2.3322,1.0272,5.2231,0.9733,7.869,1.0698
		c15.0154,0.5485,29.9114,2.2833,44.6233,5.1875c36.6276,7.2303,72.8387,16.1693,108.466,27.3907
		c2.8586,0.9004,5.6981,1.884,8.603,2.5999c0.8018,0.1975,2.1294-0.1649,2.6292-0.7617c0.4919-0.5873,0.5282-1.8976,0.2463-2.7115
		c-0.4253-1.2286-1.2465-2.3383-1.9926-3.4352c-10.5569-15.5212-18.5985-32.3464-25.3783-49.7704
		c-6.6246-17.0254-14.5814-33.4685-20.8505-50.683c-6.2556-17.1771-14.6414-33.5814-22.1545-50.297
		c-9.1505-20.3585-18.1193-40.8041-27.6299-60.9937c-7.6425-16.2238-14.4572-32.9011-24.6005-47.8622
		c-1.4773-2.1787-2.3494-4.7637-3.5398-7.1415c-1.7886-3.5725-3.2651-7.3613-5.4813-10.6488
		c-7.8336-11.6205-12.8541-24.7753-20.4066-36.5852c-3.9836-6.2292-8.3574-11.95-13.1978-17.4509
		c-3.8136-4.334-8.4812-6.2181-14.1393-6.1813C881.1797,862.7708,872.8572,862.7306,864.5349,862.7306z M582.7574,613.7122
		c-0.111-0.0038-0.2219-0.0075-0.3328-0.0112c0-3.3273,0.0771-6.6571-0.0281-9.9811c-0.0661-2.0838-0.8291-4.3825-2.803-4.9372
		c-4.9484-1.3904-6.324-5.8057-8.2996-9.4408c-3.784-6.9626-9.4323-10.789-16.9849-12.5716
		c-3.2224-0.7607-5.2552,0.0767-6.5173,2.8341c-2.3547,5.1448-4.6583,10.321-6.7438,15.5792
		c-4.2291,10.6635-12.1902,17.7247-21.148,24.5504c-12.6032,9.6032-40.6607,2.9715-47.1005-11.9031
		c-2.5183-5.8169-5.0901-11.517-6.6827-17.6837c-1.6158-6.2562-2.4858-7.1443-8.1862-5.7977
		c-5.7225,1.3519-9.3506-0.5548-13.2043-4.4776c-7.3562-7.4882-16.3903-12.3776-26.5325-15.2281
		c-7.8335-2.2017-9.8442-1.327-13.1213,6.1715c-0.1334,0.3051-0.2563,0.6147-0.3826,0.9228
		c-2.2066,5.3857-2.3563,5.5679,2.1245,9.2505c5.0206,4.1262,8.6627,9.1827,11.311,15.0057
		c9.6618,21.2445,11.8915,43.4011,8.2589,66.3382c-4.582,28.9313-8.9467,57.897-13.493,86.834
		c-1.6506,10.5065-3.3176,20.976-7.2549,31.019c-3.1492,8.0326-5.4307,16.4127-6.2822,25.102
		c-0.4677,4.7721-0.5068,9.4381,3.0104,13.165c2.9516,3.1276,3.85,6.9172,4.2433,10.9375c0.3411,3.4875,1.4238,6.4617,4.6586,8.3257
		c2.9625,1.7071,3.6068,4.566,3.6639,7.7045c0.0724,3.986-0.269,8.0195,0.9693,11.9004c2.8322,8.876,5.4555,17.8304,8.6467,26.5768
		c2.8627,7.8459,5.3308,15.7251,6.7328,23.983c0.9996,5.8881,2.405,11.7417,4.1259,17.4613
		c1.2639,4.2014,4.3416,4.6473,7.6302,1.6807c2.3023-2.0767,3.8402-4.6827,4.7327-7.5339
		c2.1266-6.7932,6.8719-11.2949,12.5906-14.9558c6.4637-4.1378,13.1027-7.7993,20.8628-9.2085
		c4.5527-0.8267,9.0021-2.4304,13.3695-4.0344c23.8512-8.759,38.2859-26.6293,47.4504-49.4875
		c0.6047-1.5082,1.0276-3.2949,0.8494-4.8748c-0.6531-5.7913,2.2805-10.0048,5.2011-14.6044
		c13.2361-20.8442,21.6659-43.3901,23.0938-68.2897c0.5333-9.3004,1.2819-18.5914,2.097-27.8723
		c1.66-18.8994,3.5322-37.7806,5.1293-56.6852C579.9814,650.898,581.3184,632.3008,582.7574,613.7122z M516.8416,1006.4708
		c0.0441,6.7883,1.6216,13.0906,7.4528,17.5542c1.9088,1.4612,4.2281,0.6016,4.3008-1.79
		c0.1836-6.0375,0.3396-12.141,3.6678-17.3801c5.6704-8.9258,6.7813-19.3599,10.1315-29.046
		c0.4352-1.2581,0.5634-2.6299-0.5775-3.6881c-1.5232-1.413-3.2964-0.917-4.5847,0.0499
		C525.7755,980.7688,515.2625,989.9926,516.8416,1006.4708z M443.2426,954.2129c-0.1161-1.783-0.2013-3.968-2.874-4.1205
		c-2.9904-0.1705-6.5228,2.5674-6.4361,5.0626c0.092,2.6508,2.0015,3.9697,4.4322,4.6254
		C441.586,960.6492,443.2853,958.8066,443.2426,954.2129z M466.4502,1034.67c0.0217-1.1119-0.6964-1.6444-1.5625-2.005
		c-1.3749-0.5723-1.4695,0.5857-1.6671,1.3864c-0.2688,1.0892,0.4329,1.6798,1.3781,1.9144
		C465.6606,1036.2292,466.2326,1035.6396,466.4502,1034.67z"/>
</g>
</svg>
