<?xml version="1.0" encoding="utf-8"?>

<!DOCTYPE svg PUBLIC "-//W3C//DTD SVG 1.1//EN" "http://www.w3.org/Graphics/SVG/1.1/DTD/svg11.dtd">
<svg version="1.1" id="Layer_1" xmlns="http://www.w3.org/2000/svg" xmlns:xlink="http://www.w3.org/1999/xlink" x="0px" y="0px"
	 viewBox="0 0 1822.955 1710.283" enable-background="new 0 0 1822.955 1710.283" xml:space="preserve">
<g>
	<path d="M251.755,1496.488c13.138-7.237,26.713-7.284,39.258,1.229c9.221,6.258,19.397,10.336,29.33,15
		c11.685,5.487,7.818,13.143,17.931,8.448c10.447-4.85,11.933-9.365,28.452-8.745c80.756,3.034,162.074-41.428,259.859-22.654
		c144.524,27.746,226.776-7.648,377.867-49.714c8.038-2.237,8.912-6.838,15.918-4.284c7.87,2.869,8.504-12.355,17.314-7.509
		c0.967,0.532,2.177,0.609,3.106-0.055c4.223-3.02,10.489-2.844,12.935-8.784c1.005-2.441,3.83-3.761,6.468-3.714
		c14.867,0.267,17.707-26.224,30.084-33.913c3.782-2.35,6.188-6.002,8.956-9.28c10.917-12.925,22.534-25.051,36.973-34.169
		c13.889-8.771,50.949-19.841,56.087-20.916c6.551-1.371,7.076-5.081,24.66-12.293c2.512-1.03,5.494-2.053,4.058-6.032
		c-0.522-1.448,0.81-1.882,1.912-1.813c4.646,0.291,6.79,3.559,11.28-1.009c10.157-10.333,9.727,1.146,47.234-42.619
		c30.34-35.403,21.089-32.867,30.828-60.019c3.27-9.117-2.818-3.427,1.898-13.484c9.145-19.504,12.985-54.385,11.291-64.324
		c-0.485-2.848,0.391-5.968,0.855-8.931c0.907-5.798-2.397-11.377-0.788-17.204c0.338-1.225-0.014-2.811,0.642-3.747
		c5.138-7.341-4.559-9.658-2.282-25.477c1.354-9.403-4.025-9.869-1.751-31.414c11.758-111.418-19.239-71.199,10.033-144.933
		c3.4-8.563,2.669-17.847,5.173-26.583c1.529-5.334,1.886-11.013,2.64-16.554c0.971-7.133-2.962-6.798-1.685-12.518
		c0.598-2.677-0.938-4.219-3.677-3.807c-3.122,0.47-6.898-1.447-9.201,2.581c-0.818,1.431-7.945,0.411-11.402,0.9
		c-12.103,1.712-3.949-5.991-15.313-6.096c-28.588-0.265-75.853-46.685-65.196-99.113c2.708-13.323-7.796-18.036-7.333-26.751
		c0.079-1.486-1.396-4.196-3.965-2.173c-2.218,1.747-6.363-0.605-7.351,3.673c-0.158,0.685-1.619,0.635-2.377,0.242
		c-11.476-5.946-25.104,41.214-12.13,103.909c1.567,7.571,3.903,15.006,2.358,22.881c-0.079,0.405-0.042,0.904,0.126,1.275
		c3.459,7.657,7.088,26.723,10.228,29.853c9.182,9.153,10.984,30.051,9.31,33.05c-3.405,6.1,0.742,10.257,4.037,14.188
		c3.148,3.756,6.85,11.522,6.019,15.939c-1.107,5.885,20.305,36.015,20.358,37.015c0.399,7.454,5.867,12.795,8.083,19.488
		c2.318,7.002-2.205,2.292,2.241,15.056c2.834,8.138,4.736,16.692,9.859,23.848c1.726,2.41,0.042,4.545,0.252,6.933
		c-7.708,0.659-5.702-11.986-10.489-18.007c-0.805-1.012-8.19-11.524-19.141-20.252c0.614,5.687,1.038,29.558,0.152,31.654
		c-2.604,6.156-3.159,12.929-5.5,19.109c-3.207,8.466,4.413,13.566,4.176,15.128c-0.771,5.083,1.975,8.368,5.042,11.793
		c-7.468-2.605-11.342-9.072-15.703-14.702c-3.7,0.896-1.569,8.15-4.489,10.025c-2.871,1.844-3.434,4.734-5.363,6.852
		c-3.516,3.859-5.216,1.656-12.123-2.44c-21.446,47.394-13.417,32.251-19.173,50.246c-5.34-4.307-2.129-9.341-1.434-15.311
		c-7.423,6.165-8.83,15.019-15.084,20.974c0.039-4.02,1.241-7.902-1.481-11.735c-3.86,4.331-3.57,21.635-6.786,29.336
		c-1.964,0.468,0.042-5.652-4.387-2.009c-3.24,2.665-6.077,0.287-5.961-4.369c0.147-5.917-0.472-11.64-3.22-16.98
		c-4.105-7.977-10.855-57.49-11.011-58.523c-0.927-6.102,5.058-10.554-0.254-17.884c-6.247-8.621,4.151-5.298,0.078-12.247
		c-1.693-2.888-1.529-5.907-1.1-8.794c1.068-7.189-2.836-13.312-3.848-20.034c-0.184-1.222-1.139-2.333-0.985-3.691
		c1.536-13.519-2.312-26.513-3.824-39.737c-5.354-46.807,2.276-47.72,2.082-62.033c-0.094-6.918,0.778-13.738,1.447-20.47
		c0.88-8.863-0.176-49.481,2.161-61.736c0.074-0.387-0.135-0.839-0.25-1.25c-2.988-10.69,0.601-25,0.263-28.163
		c-0.944-8.85,1.847-17.189,3.36-25.712c0.318-1.789,3.065-5.386-2.259-4.74c-2.102-4.785,2.382-12.853,2.81-13.854
		c0.339-0.793,1.108-1.823,0.86-2.382c-3.025-6.831,4.212-11.425,3.772-17.699c-0.219-3.125,1.521-1.995,15.67-16.734
		c13.88-14.458,10.866-10.839,25.156-16.34c9.401-3.619,10.07-1.972,8.344-9.07c-0.2-0.822-0.568-1.863-0.255-2.51
		c4.929-10.175-10.893-10.316-10.413-16.521c6.701-1.111,12.677,4.016,11.662-3.512c-0.169-1.25-1.491-2.204-0.373-4.919
		c3.089,9.087,8.845,15.752,11.353,24.295c10.969-3.314,14.168-17.101,17.148-28.168c6.011-22.315,41.865-76.019,81.279-96.29
		c16.005-8.231,29.513-7.277,45.946-9.788c5.46-0.835,24.065-13.041,29.531-7.111c3.942,4.278,6.635-0.401,11.115,5.95
		c3.452,4.894,7.395,9.385,9.398,15.175c0.448,1.295,1.722,1.962,2.985,2.304c13.864,3.755,24.167,13.002,34.497,22.235
		c1.231,1.1,2.247,3.22,4.138,2.666c3.485-1.022,5.899-28.531,1.267-64.282c-4.913-37.914-1.317-97.787,2.441-133.863
		c2.223-21.338,5.517-105.407-7.182-112.856c-7.83-4.593-8.013-7.85-34.164-33.529c-8.497-8.344-0.662-7.34-18.526-32.405
		c-8.534-11.973-2.928-15.757-9.68-28.488c-3.938-7.427-2.268-17.211,7.847-16.436c8.871,0.68,18.748,14.331,21.81,22.256
		c1.577,4.081,9.442,22.908,13.629,21.778c8.973-2.422-4.136-77.138-3.338-113.583c0.28-12.797,12.832-20.102,17.584-8.535
		c2.746,6.683,2.739,23.442,2.912,28.188c0.04,1.107,0.232,2.155,1.971,2.648c0.767-11.741-2.712-15.921-2.033-37.959
		c0.34-11.024,15.57-16.37,18.836-4.706c3.756,13.416,1.708,26.434,8.198,45.775c1.004,2.991,1.503,6.151,2.486,10.299
		c3.721-5.122-0.03-34.123-0.987-40.262c-2.231-14.311,5.251-14.293,15.196-12.345c8.686,1.702,8.169,35.248,10.381,42.678
		c5.072,17.037,1.359,45.172,5.886,49.1c1.574-1.535,1.369-3.677,1.431-5.344c0.596-16.042,6.511-31.258,7.191-47.283
		c0.75-17.684,13.118-17.446,15.435-8.28c0.624,2.469,0.523-1.519-1.278,62.756c-0.486,17.362,5.017,18.393,0.74,59.408
		c-3.714,35.621-8.628,31.629-5.416,43.963c6.907,26.522,14.832,52.786,20.105,79.725c3.072,15.695,8.416,30.807,12.179,46.336
		c3.526,14.556,23.105,122.433,23.283,123.435c6.409,36.12-7.959,34.817-8.916,63.214c-0.85,25.215-7.612,54.453-18.194,105.214
		c-0.666,3.194-1.085,5.818,1.944,8.703c11.429,10.884,10.383,28.03-1.922,37.993c-10.314,8.351-15.232,6.847-17.133,13.015
		c-6.415,20.823-12.347,30.446-26.586,68.827c-1.688,4.55-0.121,3.356,0.494,32.264c0.404,18.996,15.211,30.669,30.45,72.282
		c7.641,20.868,4.274,10.436,26.16,42.229c6.426,9.335,18.943,28.057,22.798,39.104c7.578,21.719,15.879,28.617,13.258,45.083
		c-0.71,4.462,9.316,32.6-1.981,68.173c-12.056,37.963-27.427,48.697-31.155,101.966c-3.127,44.676-15.841,77.357-20.785,84.841
		c-19.858,30.057-21.916,47.839-51.404,103.778c-24.473,46.427-7.254,13.037-39.711,62.915
		c13.104,5.705,315.248-20.522,315.923,86.473c0.362,57.244-13.609,68.23-49.404,91.518c-8.465,5.508-24.546,6.604-31.097,13.747
		c-0.955,1.041-2.412,0.881-3.685,0.805c-14.911-0.896-29.708,1.822-44.611,1.363c-1-0.031-245.16-2.671-264.129-4.18
		c0,0-96.235-3.733-96.236-3.733c-3.625-0.094-7.169-1.475-10.889-1.325c-0.782,0.032-1.835-0.318-2.346-0.874
		c-3.592-3.91-8.751-4.621-13.306-6.315c-12.632-4.697-24.35-11.021-35.595-18.356c-33.246-21.689-25.483-24.569-45.301-21.82
		c-164.062,22.753-172.673,40.796-396.818,36.893c-64.508-1.122-47.187-7.287-72.592-10.783
		c-50.335-6.925,21.592-7.193-158.366-10.057c-52.899-0.84-116.911-14.875-202.638,1.699c-40.092,7.751-67.08,9.04-67.08,9.04
		c-6.282,3.628-12.982,0.704-19.462,1.211c-12.235,0.956-12.024,2.071-14.747,1.21c-12.671-4.006-22.786,5.502-46.456,5.346
		c-127.498-0.845-117.513-1.242-121.68-2.121c-14.555-3.066-8.846-18.754-0.882-20.876c5.671-1.511,11.033-3.498,15.92-6.783
		c3.008-2.022,8.196-0.699,16.336-8.515c30.237-29.031,63.043-42.301,101.788-56.209
		C222.243,1530.877,232.307,1507.201,251.755,1496.488z"/>
</g>
</svg>
