<?xml version="1.0" encoding="utf-8"?>
<svg version="1.1" id="Layer_1" xmlns="http://www.w3.org/2000/svg" xmlns:xlink="http://www.w3.org/1999/xlink" x="0px" y="0px"
	 viewBox="0 0 1623.521 1646.497" enable-background="new 0 0 1623.521 1646.497" xml:space="preserve">
<g>
	<path d="M1600.531,1558.061c-0.485-2.06-3.182-5.259-4.696-5.148c-15.448,1.137-18.236-13.847-32.749-13.663
		c-24.648,0.312-58.42-21.519-82.141-29.869c-74.862-26.354-31.951-220.791-27.835-268.181c3.148-36.246-0.39-60.765,11.042-116.733
		c2.212-10.829-3.71-28.176-4.793-52.756c-0.58-13.16-4.309-24.911-17.595-31.489c-22.501-11.14-46.333-17.241-71.182-19.5
		c-100.9-9.172-42.841-8.367-129.848-15.546c-66.861-5.516-140.984,9.335-140.613-14.817
		c2.928-190.2-174.395-359.38-175.594-361.038c-31.094-43.024-52.293-31.613-99.743-66.598
		C693.158,465.677,704.1,417.304,629.661,353.148c-211.207-182.031-35.816-63.73-299.214-246.561
		c-15.607-10.833-28.551-26.631-49.46-28.502c-28.752-2.573-80.861-32.915-89.729-33.1C145.055,44.024,80.436,7.821,95.895,29.861
		c22.163,31.596,42.288,18.018,113.234,76.04c12.3,10.06,24.868,20.945,43.159,16.092c32.015-8.493,163.018,136.534,163.799,137.534
		c32.629,41.767,50.69,28.952,70.522,65.453c23.238,42.77,8.53,31.257,75.766,102.183c10.04,10.591,9.402,11.641,32.789,72.072
		c0.952,2.461,3.208,5.61,0.611,7.615c-3.026,2.337-6.67,1.488-10-0.83c-22.316-15.533-35.642,2.382-44.079-9.694
		c-7.03-10.062-13.582-11.295-23.973-4.764c-8.229,5.172-15.928,10.999-22.773,18.047c-17.979,18.511-26.832-5.003-43.505,4.735
		c-11.942,6.975-25.947,9.688-37.33,17.948c-2.741,1.99-6.006,2.197-9.542,1.056c-11.486-3.706-6.849,4.984-29.798,22.156
		c-9.638,7.212-8.174,29.32-21.53,43.416c-5.021,5.3-1.781,14.3-3.972,23.501c-10.404,43.684,4.72,69.097,36.09,124.801
		c21.397,37.994,53.599,16.764,72.243,25.821c3.169,1.54,4.905,1.244,3.388,5.932c-4.449,13.744,0.182,24.028,11.87,31.539
		c28.093,18.053,4.07,56.593,36.282,58.107c12.226,0.575,20.37,11.231,17.425,23.328c-6.961,28.595,3.718,19.769,4.031,28.144
		c2.069,55.413-23.823,66.654-47.359,119.926c-18.32,41.465-37.274,42.436-60.94,65.28
		c-35.473,34.239-83.311,102.318-112.035,125.262c-58.459,46.695-51.947,65.71-80.672,85.399
		c-32.151,22.037-8.775,23.772-43.964,71.751c-14.252,19.431-32.162,64.718-79.597,90.852
		c-21.888,12.059-33.536,35.525-55.934,46.328c-1.719,0.829-2.636,6.733-12.233,9.033c-12.043,2.886-17.543,14.758-13.768,26.01
		c1.305,3.891,5.677,3.137,6.569,6.779c4.973,20.309,19.323,20.786,38.609,30.872c58.443,30.563,100.671,19.305,113.98,24.63
		c9.008,3.605,15.213-4.169,8.11-12.203c-16.174-18.294-11.338-28.629-29.751-37.554c-31.792-15.409-1.668-71.857,111.208-117.34
		c88.745-35.76,100.045-67.187,135.513-77.999c34.22-10.431,49.474-24.074,95.551-29.093c23.289-2.536,43.153-15.737,66.431-19.778
		c89.634-15.563,168.741-91.252,225.56-105.904c39.757-10.252,73.032-32.118,88.033-39.347c8.816-4.248,18.778-5.963,24.703-15.072
		c7.28-11.193,112.369,14.47,116.531,14.39c65.417-1.26,153.53,7.92,204.425-12.312c42.408-16.859,75.718-20.94,112.75-20.691
		c9.218,0.062,11.348-0.404,5.327,15.659c-18.58,49.571-15.572,98.938-5.312,131.377c13.741,43.444,6.7,51.648,9.853,64.575
		c9.99,40.951,3.568,37.844,5.927,116.155c0.256,8.509-2.603,16.962-3.452,25.393c-1.56,15.489-9.172,29.712-10.27,45.172
		c-0.986,13.891,8.906,19.49,21.774,19.64c0.574,0.007,1.149,0.004,1.723-0.006c56.504-0.959,113.049,0.4,169.548-0.707
		c18.164-0.356,36.351-3.595,54.69-3.09C1593.7,1563.524,1601.232,1561.038,1600.531,1558.061z M621.349,543.813
		c16.367,9.063,18.339,25.452,23.101,40.094c2.129,6.547-0.29,7.472-9.758,5.868c-4.334-0.734-9.538,0.035-11.665-4.404
		C613.475,565.435,613.479,572.71,621.349,543.813z M588.417,699.468c8.892,9.727,25.201,39.146,4.934,43.645
		c-12.283,2.727-0.197-17.533-12.748-26.394C575.279,712.961,582.946,693.484,588.417,699.468z M800.638,945.871
		c-0.404,7.756-3.44-0.307-18.565,18.753c-5.955,7.504-15.281,13.935-15.287,25.223c-0.001,2.151-0.244,4.067-1.829,5.221
		c-8.893,6.472-8.253,18.456-15.442,26.218c-3.167,3.419,2.254,9.519,0.231,15.08c-5.438,14.952-6.559,4.513-25.616,24.691
		c-55.726,59.004-118.183,110.26-183.106,158.632c-51.805,38.598-79.885,25.44-194.797,60.86
		c55.252-60.569,120.72-45.788,224.109-223.516c20.415-35.094,29.291-28.204,52.744-85.361c7.182-17.503,19.283-32.52,25.533-50.558
		c1.722-4.971,6.063-7.215,11.863-7.471c1.848-0.082,52.03-2.689,55.569-4.658c15.656-8.711,25.731,4.314,44.989-1.544
		c8.875-2.7,13.83,13.06,32.025,5.35c3.31-1.403,7.083-2.221,10.249,0.584c3.399,3.01-0.236,5.477-0.887,8.176
		c-0.255,1.056-0.993,2.666-0.563,3.115C809.069,932.19,801.004,938.829,800.638,945.871z"/>
	<path d="M592.879,732.18c-0.267,0.158-0.534,0.315-0.801,0.473c0.321-0.097,0.641-0.193,0.962-0.29L592.879,732.18z"/>
	<path d="M594.184,729.929c0.252-0.435,0.503-0.869,0.755-1.304c0.94,1.522-0.285,1.059-0.983,1.083
		C593.96,729.714,594.184,729.929,594.184,729.929z"/>
	<path d="M593.039,732.363c-0.503-1.23-0.32-2.133,1.148-2.429c-0.004-0.005-0.227-0.22-0.232-0.226
		c-0.376,0.805-0.748,1.615-1.099,2.448C592.879,732.18,593.039,732.363,593.039,732.363z"/>
</g>
</svg>
